<svg id="0c4d3e72-800e-4297-acda-a0f564e94570" data-name="Capa 1" xmlns="http://www.w3.org/2000/svg" viewBox="0 0 60 59"><title>logo</title><path d="M43.61,10.85a1,1,0,0,0-1,1.7,24,24,0,0,1,10.63,26.6,1,1,0,0,0,.71,1.22,1,1,0,0,0,.26,0,1,1,0,0,0,1-.74A26,26,0,0,0,43.61,10.85Z" style="fill:#a7b1af"/><path d="M39.17,55.18a24,24,0,0,1-26.9-6,1,1,0,0,0-1.48,1.35A26,26,0,0,0,39.94,57a1,1,0,1,0-.76-1.85Z" style="fill:#745b95"/><path d="M24.28,9.69a1,1,0,0,0-.47-1.94A25.89,25.89,0,0,0,4.07,31.15,1,1,0,0,0,5,32.21h.07a1,1,0,0,0,1-.93A23.89,23.89,0,0,1,24.28,9.69Z" style="fill:#6297c5"/><circle cx="52" cy="45" r="8" style="fill:#a7b1af"/><circle cx="8" cy="45" r="8" style="fill:#745b95"/><polygon points="8.19 48.64 8.19 52.2 12.6 46 8.19 48.64" style="fill:#fff"/><polygon points="12.43 44.85 8.19 37.8 8.19 42.93 12.43 44.85" style="fill:#fff"/><polygon points="8.19 43.34 8.19 47.71 12.4 45.25 8.19 43.34" style="fill:#fff"/><polygon points="3.58 44.85 7.82 37.8 7.82 42.93 3.58 44.85" style="fill:#fff"/><polygon points="7.82 43.34 7.82 47.71 3.6 45.25 7.82 43.34" style="fill:#fff"/><polygon points="7.81 48.64 7.81 52.2 3.4 46 7.81 48.64" style="fill:#fff"/><circle cx="30" cy="8" r="8" style="fill:#6297c5"/><path d="M34.84,4.44a2.53,2.53,0,0,1-2.19,2.5c-.23,0-.47,0-.7.08a1,1,0,0,0-.57,1.63,1.11,1.11,0,0,0,.79.35,4.44,4.44,0,0,1,.95.15,2.4,2.4,0,0,1,1.68,2,2.54,2.54,0,0,1-2,2.87,2.54,2.54,0,0,1-2.78-3.73,1.45,1.45,0,0,0,.2-.72,1,1,0,0,0-.71-.91.94.94,0,0,0-1,.31c-.16.2-.3.43-.46.63a2.4,2.4,0,0,1-2.51.85,2.44,2.44,0,0,1-1.9-1.88,2.52,2.52,0,0,1,2-3.12,2.44,2.44,0,0,1,2.56,1,3.93,3.93,0,0,0,.42.54,1,1,0,0,0,1.65-.45,1.13,1.13,0,0,0-.12-.8,3,3,0,0,1-.39-1.47A2.56,2.56,0,0,1,34.8,4C34.82,4.13,34.83,4.29,34.84,4.44Z" style="fill:#fff"/><circle cx="30" cy="33.55" r="12" style="fill:#e8ba4c"/><path d="M37.29,35.23a2.44,2.44,0,0,0-1.24-1.87A10.32,10.32,0,0,0,35,32.89l.1-.07c1.8-.92,1.64-3.69.33-4.64a4.73,4.73,0,0,0-1.74-.78c-.45-.1-.89-.17-1.35-.24,0-.8,0-1.91,0-2.8H30.67c0,.88,0,2,0,2.75H29.29c0-.79,0-1.87,0-2.75H27.64c0,.89,0,2,0,2.79l-3.41,0c0,.62,0,1.19,0,1.8h1.29a.86.86,0,0,1,.89.95c0,2.4-.06,4.81-.07,7.21,0,.53-.23.73-.75.73H24.43l-.34,2,3.41,0c0,.86,0,2,0,2.86h1.68c0-.91,0-2,0-2.82l1.35,0c0,.86,0,1.91,0,2.79h1.68c0-.91,0-2,0-2.8l.14,0c.8-.13,1.62-.2,2.4-.39A3.17,3.17,0,0,0,37,37.68,4.85,4.85,0,0,0,37.29,35.23Zm-8-6.15a7.08,7.08,0,0,1,3,.34,1.38,1.38,0,0,1,.91,1.41,1.45,1.45,0,0,1-1.09,1.35,8,8,0,0,1-2.87.24C29.29,31.34,29.3,30.25,29.32,29.08ZM33,37.48a7.14,7.14,0,0,1-2.9.43h-.85l0-3.72A8.87,8.87,0,0,1,33,34.6a1.54,1.54,0,0,1,0,2.87Z" style="fill:#fff"/><polygon points="51.33 47.78 52.08 44.93 53.87 44.28 54.32 42.6 54.3 42.57 52.54 43.21 53.81 38.43 50.21 38.43 48.55 44.67 47.16 45.18 46.7 46.89 48.09 46.39 47.11 50.07 56.69 50.07 57.3 47.78 51.33 47.78" style="fill:#fff"/></svg>